<?xml version="1.0" encoding="iso-8859-1"?>
<!DOCTYPE svg PUBLIC "-//W3C//DTD SVG 1.1//EN" "http://www.w3.org/Graphics/SVG/1.1/DTD/svg11.dtd">
<svg fill="#842020" height="800px" width="800px" version="1.1" id="Capa_1" xmlns="http://www.w3.org/2000/svg" xmlns:xlink="http://www.w3.org/1999/xlink" viewBox="0 0 162.577 162.577" xml:space="preserve">
	<g>
		<path d="M159.059,1.283c-2.066-1.394-4.689-1.671-7.002-0.738L123.3,12.149C110.654,4.467,96.216,0.427,81.293,0.427
			c-14.922,0-29.361,4.041-42.009,11.722L10.52,0.545C8.208-0.388,5.584-0.111,3.518,1.283C1.452,2.678,0.213,5.007,0.213,7.5v74.003
			c0,44.705,36.372,81.074,81.079,81.074c44.703,0,81.071-36.37,81.071-81.074V7.5C162.364,5.007,161.126,2.678,159.059,1.283z
			M81.293,147.577c-22.751,0-42.854-11.558-54.745-29.109h11.625c3.313,0,6-2.687,6-6s-2.687-6-6-6H20.126
			c-0.988-2.412-1.834-4.895-2.535-7.438h33.426c3.313,0,6-2.687,6-6s-2.687-6-6-6H15.462c-0.152-1.824-0.248-3.664-0.248-5.526
			v-1.907h22.959c3.313,0,6-2.687,6-6c0-3.313-2.687-6-6-6H15.213V18.613l22.05,8.896c2.317,0.934,4.946,0.654,7.014-0.747
			c10.941-7.416,23.741-11.335,37.015-11.335c13.274,0,26.073,3.919,37.012,11.335c2.067,1.402,4.698,1.682,7.015,0.747l22.044-8.895
			v48.982h-22.959c-3.314,0-6,2.687-6,6c0,3.313,2.686,6,6,6h22.959v1.907c0,1.863-0.097,3.702-0.248,5.526h-35.552
			c-3.313,0-6,2.687-6,6s2.687,6,6,6h33.423c-0.701,2.543-1.546,5.027-2.534,7.438h-18.047c-3.314,0-6,2.687-6,6s2.686,6,6,6h11.625
			C124.141,136.019,104.042,147.577,81.293,147.577z"/>
		<path d="M94.12,84.619H68.457c-1.104,0-2,0.896-2,2c0,8.176,6.655,14.828,14.836,14.828c8.176,0,14.827-6.652,14.827-14.828
			C96.12,85.515,95.224,84.619,94.12,84.619z"/>
	</g>
</svg>